Coordinates
version=1
nRows=24
nColumns=22
inDegrees=yes

Units are S.I. units (second, meters, Newtons, ...)
If the header above contains a line with 'inDegrees', this indicates whether rotational values are in degrees (yes) or radians (no).

endheader
time	pelvis_tilt	pelvis_list	pelvis_rotation	pelvis_tx	pelvis_ty	pelvis_tz	hip_flexion_r	hip_adduction_r	hip_rotation_r	knee_angle_r	ankle_angle_r	subtalar_angle_r	hip_flexion_l	hip_adduction_l	hip_rotation_l	knee_angle_l	ankle_angle_l	subtalar_angle_l	lumbar_extension	lumbar_bending	lumbar_rotation
      0.01000000	      1.86550899	     -0.81978621	      0.46184898	     -1.73021471	      1.08349274	     -0.33118668	     -1.63038995	      1.78602891	     -5.72089627	    -10.46310436	     10.57049807	     -3.17509455	     -1.70199393	     -0.05777976	     -0.49359975	    -12.07135027	     12.46167548	     -1.97302319	     -4.73293090	     -1.12378659	     -5.62270081
      0.02000000	      1.87012963	     -0.83692715	      0.46183011	     -1.73018635	      1.08349913	     -0.33115232	     -1.64172649	      1.80771954	     -5.71590602	    -10.45201899	     10.55137543	     -3.20021892	     -1.70886790	     -0.07861141	     -0.49670690	    -12.07129047	     12.47887168	     -1.97689735	     -4.74217593	     -1.12467618	     -5.58867736
      0.03000000	      1.86852671	     -0.84059821	      0.47018158	     -1.73015802	      1.08349569	     -0.33113214	     -1.64641705	      1.81427861	     -5.71877825	    -10.44356510	     10.55419684	     -3.20428933	     -1.70601031	     -0.08491965	     -0.49369635	    -12.07529196	     12.47798699	     -1.97689351	     -4.74485764	     -1.14305384	     -5.56531926
      0.04000000	      1.86670287	     -0.84501771	      0.47642249	     -1.73012389	      1.08349187	     -0.33110644	     -1.64918052	      1.82161452	     -5.72119846	    -10.43864068	     10.55503805	     -3.20841772	     -1.70599365	     -0.09197781	     -0.49137547	    -12.07426918	     12.47955541	     -1.97694252	     -4.74579400	     -1.16109881	     -5.54223927
      0.05000000	      1.86488775	     -0.84980752	      0.47667745	     -1.73008449	      1.08348662	     -0.33106910	     -1.65211342	      1.82890728	     -5.72367233	    -10.43290291	     10.55525850	     -3.21450199	     -1.70814553	     -0.09934774	     -0.48890560	    -12.07123276	     12.48247104	     -1.97670370	     -4.74510869	     -1.17886518	     -5.51568735
      0.06000000	      1.86359137	     -0.85395361	      0.48227364	     -1.73005018	      1.08348122	     -0.33103855	     -1.65264070	      1.83602698	     -5.72314551	    -10.43408059	     10.55521923	     -3.21507267	     -1.70928716	     -0.10643104	     -0.48967818	    -12.06940587	     12.48299489	     -1.97680600	     -4.74488583	     -1.19561967	     -5.51172288
      0.07000000	      1.86067994	     -0.85814467	      0.48658423	     -1.72999943	      1.08347341	     -0.33101280	     -1.65658295	      1.84266758	     -5.72835671	    -10.42649528	     10.55559761	     -3.21957909	     -1.71266558	     -0.11292374	     -0.48750790	    -12.06224029	     12.48631322	     -1.97600379	     -4.73939792	     -1.21203882	     -5.48345031
      0.08000000	      1.85961654	     -0.86181339	      0.49254641	     -1.72996515	      1.08346746	     -0.33098611	     -1.65704313	      1.84901256	     -5.72772933	    -10.42826008	     10.55534491	     -3.21995362	     -1.71444420	     -0.11940410	     -0.48840597	    -12.06000786	     12.48680921	     -1.97599871	     -4.73817060	     -1.22719083	     -5.48066987
      0.09000000	      1.85783011	     -0.86537878	      0.50026321	     -1.72993038	      1.08346063	     -0.33096436	     -1.65782327	      1.85517118	     -5.72820515	    -10.42887237	     10.55525489	     -3.22029793	     -1.71592157	     -0.12579662	     -0.48921703	    -12.05624727	     12.48755068	     -1.97592421	     -4.73655143	     -1.24213459	     -5.47568651
      0.10000000	      1.85550166	     -0.86883264	      0.50860731	     -1.72989494	      1.08345343	     -0.33094261	     -1.65837669	      1.86140824	     -5.72988484	    -10.42824242	     10.55531483	     -3.22063588	     -1.71745852	     -0.13217973	     -0.48961054	    -12.05141617	     12.48846369	     -1.97577867	     -4.73458950	     -1.25714641	     -5.46931593
      0.11000000	      1.85235966	     -0.87226382	      0.51745617	     -1.72985885	      1.08344554	     -0.33092487	     -1.65893643	      1.86733507	     -5.73288775	    -10.42647313	     10.55554197	     -3.22106542	     -1.71870130	     -0.13822194	     -0.48929914	    -12.04530020	     12.48956771	     -1.97554268	     -4.73251655	     -1.27169128	     -5.46144215
      0.12000000	      1.84513176	     -0.87510641	      0.52754999	     -1.72979740	      1.08343317	     -0.33092833	     -1.66087460	      1.87130474	     -5.74890849	    -10.41513634	     10.55661350	     -3.22353607	     -1.72197231	     -0.14174743	     -0.48031203	    -12.02963282	     12.49277215	     -1.97394311	     -4.72165937	     -1.28352395	     -5.43668509
      0.13000000	      1.84235180	     -0.87845791	      0.53292337	     -1.72976896	      1.08342629	     -0.33090300	     -1.65978050	      1.87722802	     -5.74995264	    -10.41563370	     10.55662507	     -3.22390813	     -1.72222263	     -0.14769002	     -0.47927608	    -12.02625533	     12.49322630	     -1.97381478	     -4.72341199	     -1.29795201	     -5.43455296
      0.14000000	      1.83906394	     -0.88137978	      0.54304444	     -1.72973561	      1.08341881	     -0.33089297	     -1.65922789	      1.88234711	     -5.75166966	    -10.41566111	     10.55706875	     -3.22442509	     -1.72196208	     -0.15295847	     -0.47815524	    -12.02172097	     12.49396510	     -1.97368764	     -4.72472371	     -1.31106161	     -5.42911918
      0.15000000	      1.83525640	     -0.88417390	      0.55261697	     -1.72969945	      1.08341006	     -0.33088251	     -1.65875299	      1.88739172	     -5.75525866	    -10.41413833	     10.55809382	     -3.22509744	     -1.72128986	     -0.15808231	     -0.47561499	    -12.01745069	     12.49488001	     -1.97355423	     -4.72617464	     -1.32423241	     -5.42192737
      0.16000000	      1.83110199	     -0.88674627	      0.56247214	     -1.72965907	      1.08340082	     -0.33087509	     -1.65858826	      1.89201770	     -5.76034743	    -10.41173384	     10.55954164	     -3.22593181	     -1.72020944	     -0.16273359	     -0.47183220	    -12.01363681	     12.49597150	     -1.97342954	     -4.72773524	     -1.33702725	     -5.41312179
      0.17000000	      1.82484228	     -0.88740414	      0.57661970	     -1.72959257	      1.08338791	     -0.33089367	     -1.66139202	      1.89286177	     -5.78479376	    -10.40211929	     10.56470484	     -3.23014338	     -1.71831813	     -0.16290719	     -0.44994731	    -12.01076033	     12.49960547	     -1.97259251	     -4.72226591	     -1.34882459	     -5.38715183
      0.18000000	      1.82070332	     -0.88970078	      0.58135052	     -1.72955792	      1.08337709	     -0.33088117	     -1.65915409	      1.89683146	     -5.78662756	    -10.40167747	     10.56503257	     -3.23066824	     -1.71717420	     -0.16680069	     -0.44864510	    -12.00764525	     12.50028394	     -1.97264188	     -4.72797597	     -1.35974529	     -5.38674357
      0.19000000	      1.81695789	     -0.89141338	      0.59017279	     -1.72951134	      1.08336631	     -0.33087771	     -1.65853924	      1.90019698	     -5.78910391	    -10.40180358	     10.56539102	     -3.23138360	     -1.71614085	     -0.17020322	     -0.44680568	    -12.00503442	     12.50121326	     -1.97273546	     -4.73181307	     -1.37058863	     -5.38354974
      0.20000000	      1.81286306	     -0.89267303	      0.59755877	     -1.72946392	      1.08335418	     -0.33087502	     -1.65802635	      1.90278127	     -5.79304322	    -10.40040892	     10.56587753	     -3.23225956	     -1.71484213	     -0.17267149	     -0.44394139	    -12.00291152	     12.50240904	     -1.97286925	     -4.73611377	     -1.38065616	     -5.37975160
      0.21000000	      1.80863953	     -0.89333990	      0.60482681	     -1.72941372	      1.08333858	     -0.33087306	     -1.65791502	      1.90461205	     -5.79819626	    -10.39821746	     10.56639112	     -3.23339137	     -1.71358192	     -0.17436075	     -0.44023526	    -12.00083730	     12.50404579	     -1.97307625	     -4.74020443	     -1.39045680	     -5.37576914
      0.22000000	      1.80417767	     -0.89327602	      0.61151607	     -1.72936199	      1.08332354	     -0.33087241	     -1.65794655	      1.90548898	     -5.80471246	    -10.39501949	     10.56697500	     -3.23486272	     -1.71245174	     -0.17500580	     -0.43567122	    -11.99833700	     12.50628133	     -1.97337749	     -4.74433770	     -1.39967680	     -5.37253612
      0.23000000	      1.79967235	     -0.88229771	      0.62957576	     -1.72928706	      1.08330477	     -0.33090865	     -1.66326641	      1.89265708	     -5.84736594	    -10.38416236	     10.57036443	     -3.24766414	     -1.71471504	     -0.16101117	     -0.39884571	    -11.99219573	     12.51820807	     -1.97509824	     -4.74445849	     -1.41659315	     -5.37872260
      0.24000000	      1.79572914	     -0.88352400	      0.63517365	     -1.72923464	      1.08328839	     -0.33090505	     -1.66232417	      1.89509030	     -5.84719197	    -10.38516221	     10.57068525	     -3.24831252	     -1.71439919	     -0.16348445	     -0.39929218	    -11.98925976	     12.51808337	     -1.97523450	     -4.74958232	     -1.42250386	     -5.38037719
